<svg width="197" height="55" viewBox="0 0 197 55" fill="none" xmlns="http://www.w3.org/2000/svg">
<path d="M9.17614 47.4091C7.53977 47.4091 6.09517 46.9957 4.84233 46.169C3.58949 45.3338 2.60938 44.1577 1.90199 42.6406C1.1946 41.1151 0.840909 39.3125 0.840909 37.233C0.840909 35.1705 1.1946 33.3807 1.90199 31.8636C2.60938 30.3466 3.59375 29.1747 4.85511 28.348C6.11648 27.5213 7.57386 27.108 9.22727 27.108C10.5057 27.108 11.5156 27.321 12.2571 27.7472C13.0071 28.1648 13.5781 28.642 13.9702 29.179C14.3707 29.7074 14.6818 30.142 14.9034 30.483H15.1591V20.8182H18.1761V47H15.2614V43.983H14.9034C14.6818 44.3409 14.3665 44.7926 13.9574 45.3381C13.5483 45.875 12.9645 46.3565 12.206 46.7827C11.4474 47.2003 10.4375 47.4091 9.17614 47.4091ZM9.58523 44.6989C10.7955 44.6989 11.8182 44.3835 12.6534 43.7528C13.4886 43.1136 14.1236 42.2315 14.5582 41.1065C14.9929 39.973 15.2102 38.6648 15.2102 37.1818C15.2102 35.7159 14.9972 34.4332 14.571 33.3338C14.1449 32.2259 13.5142 31.3651 12.679 30.7514C11.8438 30.1293 10.8125 29.8182 9.58523 29.8182C8.30682 29.8182 7.24148 30.1463 6.3892 30.8026C5.54545 31.4503 4.91051 32.3324 4.48438 33.4489C4.06676 34.5568 3.85795 35.8011 3.85795 37.1818C3.85795 38.5795 4.07102 39.8494 4.49716 40.9915C4.93182 42.125 5.57102 43.0284 6.41477 43.7017C7.26705 44.3665 8.32386 44.6989 9.58523 44.6989ZM97.8594 54.7727C96.402 54.7727 95.1491 54.5852 94.1009 54.2102C93.0526 53.8438 92.179 53.358 91.4801 52.7528C90.7898 52.1563 90.2401 51.517 89.831 50.8352L92.2344 49.1477C92.5071 49.5057 92.8523 49.9148 93.2699 50.375C93.6875 50.8438 94.2585 51.2486 94.983 51.5895C95.7159 51.9389 96.6747 52.1136 97.8594 52.1136C99.4446 52.1136 100.753 51.7301 101.784 50.9631C102.815 50.196 103.331 48.9943 103.331 47.358V43.3693H103.075C102.854 43.7273 102.538 44.1705 102.129 44.6989C101.729 45.2188 101.149 45.6832 100.391 46.0923C99.6406 46.4929 98.6264 46.6932 97.348 46.6932C95.7628 46.6932 94.3395 46.3182 93.0781 45.5682C91.8253 44.8182 90.8324 43.7273 90.0994 42.2955C89.375 40.8636 89.0128 39.125 89.0128 37.0795C89.0128 35.0682 89.3665 33.3168 90.0739 31.8253C90.7813 30.3253 91.7656 29.1662 93.027 28.348C94.2884 27.5213 95.7457 27.108 97.3991 27.108C98.6776 27.108 99.6918 27.321 100.442 27.7472C101.2 28.1648 101.78 28.642 102.18 29.179C102.589 29.7074 102.905 30.142 103.126 30.483H103.433V27.3636H106.348V47.5625C106.348 49.25 105.964 50.6222 105.197 51.679C104.439 52.7443 103.416 53.5241 102.129 54.0185C100.851 54.5213 99.4276 54.7727 97.8594 54.7727ZM97.7571 43.983C98.9673 43.983 99.9901 43.706 100.825 43.152C101.661 42.598 102.295 41.8011 102.73 40.7614C103.165 39.7216 103.382 38.4773 103.382 37.0284C103.382 35.6136 103.169 34.3651 102.743 33.2827C102.317 32.2003 101.686 31.3523 100.851 30.7386C100.016 30.125 98.9844 29.8182 97.7571 29.8182C96.4787 29.8182 95.4134 30.142 94.5611 30.7898C93.7173 31.4375 93.0824 32.3068 92.6562 33.3977C92.2386 34.4886 92.0298 35.6989 92.0298 37.0284C92.0298 38.392 92.2429 39.598 92.669 40.6463C93.1037 41.6861 93.7429 42.5043 94.5866 43.1009C95.4389 43.6889 96.4957 43.983 97.7571 43.983ZM114.888 35.1875V47H111.871V27.3636H114.786V30.4318H115.041C115.501 29.4347 116.2 28.6335 117.138 28.0284C118.075 27.4148 119.286 27.108 120.768 27.108C122.098 27.108 123.261 27.3807 124.259 27.9261C125.256 28.4631 126.031 29.2812 126.585 30.3807C127.139 31.4716 127.416 32.8523 127.416 34.5227V47H124.399V34.7273C124.399 33.1847 123.999 31.983 123.197 31.1222C122.396 30.2528 121.297 29.8182 119.899 29.8182C118.936 29.8182 118.075 30.027 117.317 30.4446C116.567 30.8622 115.974 31.4716 115.54 32.2727C115.105 33.0739 114.888 34.0455 114.888 35.1875ZM140.907 47.4091C139.134 47.4091 137.578 46.9872 136.24 46.1435C134.911 45.2997 133.871 44.1193 133.121 42.6023C132.38 41.0852 132.009 39.3125 132.009 37.2841C132.009 35.2386 132.38 33.4531 133.121 31.9276C133.871 30.402 134.911 29.2173 136.24 28.3736C137.578 27.5298 139.134 27.108 140.907 27.108C142.679 27.108 144.23 27.5298 145.56 28.3736C146.898 29.2173 147.938 30.402 148.679 31.9276C149.429 33.4531 149.804 35.2386 149.804 37.2841C149.804 39.3125 149.429 41.0852 148.679 42.6023C147.938 44.1193 146.898 45.2997 145.56 46.1435C144.23 46.9872 142.679 47.4091 140.907 47.4091ZM140.907 44.6989C142.253 44.6989 143.361 44.3537 144.23 43.6634C145.1 42.973 145.743 42.0653 146.161 40.9403C146.578 39.8153 146.787 38.5966 146.787 37.2841C146.787 35.9716 146.578 34.7486 146.161 33.6151C145.743 32.4815 145.1 31.5653 144.23 30.8665C143.361 30.1676 142.253 29.8182 140.907 29.8182C139.56 29.8182 138.452 30.1676 137.583 30.8665C136.713 31.5653 136.07 32.4815 135.652 33.6151C135.235 34.7486 135.026 35.9716 135.026 37.2841C135.026 38.5966 135.235 39.8153 135.652 40.9403C136.07 42.0653 136.713 42.973 137.583 43.6634C138.452 44.3537 139.56 44.6989 140.907 44.6989ZM168.319 31.7614L165.609 32.5284C165.438 32.0767 165.187 31.6378 164.854 31.2116C164.531 30.777 164.087 30.419 163.525 30.1378C162.962 29.8565 162.242 29.7159 161.364 29.7159C160.163 29.7159 159.161 29.9929 158.36 30.5469C157.567 31.0923 157.171 31.7869 157.171 32.6307C157.171 33.3807 157.444 33.973 157.989 34.4077C158.535 34.8423 159.387 35.2045 160.546 35.4943L163.461 36.2102C165.217 36.6364 166.525 37.2884 167.386 38.1662C168.246 39.0355 168.677 40.1562 168.677 41.5284C168.677 42.6534 168.353 43.6591 167.705 44.5455C167.066 45.4318 166.171 46.1307 165.021 46.642C163.87 47.1534 162.532 47.4091 161.006 47.4091C159.004 47.4091 157.346 46.9744 156.033 46.1051C154.721 45.2358 153.89 43.9659 153.54 42.2955L156.404 41.5795C156.677 42.6364 157.192 43.429 157.951 43.9574C158.718 44.4858 159.719 44.75 160.955 44.75C162.362 44.75 163.478 44.4517 164.305 43.8551C165.14 43.25 165.558 42.5256 165.558 41.6818C165.558 41 165.319 40.429 164.842 39.9688C164.364 39.5 163.631 39.1506 162.643 38.9205L159.37 38.1534C157.572 37.7273 156.251 37.0668 155.407 36.1719C154.572 35.2685 154.154 34.1392 154.154 32.7841C154.154 31.6761 154.465 30.696 155.087 29.8438C155.718 28.9915 156.575 28.3224 157.657 27.8366C158.748 27.3509 159.984 27.108 161.364 27.108C163.308 27.108 164.833 27.5341 165.941 28.3864C167.058 29.2386 167.85 30.3636 168.319 31.7614ZM173.218 47V27.3636H176.235V47H173.218ZM174.752 24.0909C174.164 24.0909 173.657 23.8906 173.231 23.4901C172.814 23.0895 172.605 22.608 172.605 22.0455C172.605 21.483 172.814 21.0014 173.231 20.6009C173.657 20.2003 174.164 20 174.752 20C175.341 20 175.843 20.2003 176.261 20.6009C176.687 21.0014 176.9 21.483 176.9 22.0455C176.9 22.608 176.687 23.0895 176.261 23.4901C175.843 23.8906 175.341 24.0909 174.752 24.0909ZM195.67 31.7614L192.96 32.5284C192.79 32.0767 192.538 31.6378 192.206 31.2116C191.882 30.777 191.439 30.419 190.876 30.1378C190.314 29.8565 189.594 29.7159 188.716 29.7159C187.514 29.7159 186.513 29.9929 185.712 30.5469C184.919 31.0923 184.523 31.7869 184.523 32.6307C184.523 33.3807 184.795 33.973 185.341 34.4077C185.886 34.8423 186.739 35.2045 187.898 35.4943L190.812 36.2102C192.568 36.6364 193.876 37.2884 194.737 38.1662C195.598 39.0355 196.028 40.1562 196.028 41.5284C196.028 42.6534 195.705 43.6591 195.057 44.5455C194.418 45.4318 193.523 46.1307 192.372 46.642C191.222 47.1534 189.884 47.4091 188.358 47.4091C186.355 47.4091 184.697 46.9744 183.385 46.1051C182.072 45.2358 181.241 43.9659 180.892 42.2955L183.756 41.5795C184.028 42.6364 184.544 43.429 185.303 43.9574C186.07 44.4858 187.071 44.75 188.307 44.75C189.713 44.75 190.83 44.4517 191.656 43.8551C192.491 43.25 192.909 42.5256 192.909 41.6818C192.909 41 192.67 40.429 192.193 39.9688C191.716 39.5 190.983 39.1506 189.994 38.9205L186.722 38.1534C184.923 37.7273 183.602 37.0668 182.759 36.1719C181.923 35.2685 181.506 34.1392 181.506 32.7841C181.506 31.6761 181.817 30.696 182.439 29.8438C183.07 28.9915 183.926 28.3224 185.009 27.8366C186.099 27.3509 187.335 27.108 188.716 27.108C190.659 27.108 192.185 27.5341 193.293 28.3864C194.409 29.2386 195.202 30.3636 195.67 31.7614Z" fill="#FFFCC0"/>
<path d="M33.4276 47H22.8821L38.9503 0.454544H51.6321L67.6776 47H57.1321L45.473 11.0909H45.1094L33.4276 47ZM32.7685 28.7045H57.6776V36.3864H32.7685V28.7045ZM83.1207 0.454544V47H73.2798V0.454544H83.1207Z" fill="url(#paint0_linear_17_67)"/>
<defs>
<linearGradient id="paint0_linear_17_67" x1="56" y1="42.5" x2="93.5" y2="-6" gradientUnits="userSpaceOnUse">
<stop stop-color="#FFFCC0"/>
<stop offset="1" stop-color="white"/>
</linearGradient>
</defs>
</svg>
